<svg xmlns="http://www.w3.org/2000/svg" width="1400" height="82" viewBox="0 0 1400 82" version="1.1">
	<path d="M 4 9.500 C 4 14.700, 4.136 15, 6.500 15 C 8.864 15, 9 14.700, 9 9.500 C 9 4.300, 8.864 4, 6.500 4 C 4.136 4, 4 4.300, 4 9.500 M 13 8.051 C 13 11.728, 13.320 12.236, 16.468 13.551 C 20.489 15.231, 38 15.596, 38 14 C 38 13.421, 34.740 12.994, 30.250 12.985 C 20.682 12.967, 17.613 11.614, 17.187 7.227 C 16.952 4.810, 16.387 4, 14.937 4 C 13.340 4, 13 4.711, 13 8.051 M 644.500 24.412 C 624.166 28.386, 611.994 37.628, 612.004 49.088 C 612.008 54.576, 614.560 58.928, 620.217 63.094 C 630.410 70.603, 643.073 74.009, 660.697 73.983 C 674.928 73.962, 683.710 72.241, 693.419 67.571 C 718.694 55.414, 713.128 34.014, 682.544 25.763 C 673.255 23.257, 653.924 22.571, 644.500 24.412 M 37.500 25.085 C 25.513 27.447, 17.045 31.160, 10.802 36.793 C 4.720 42.282, 4 44.840, 4 60.968 L 4 75 15 75 L 26 75 26 61.450 C 26 44.941, 26.647 43.298, 34.700 39.358 C 45.790 33.933, 66.228 35.114, 73.969 41.628 C 79.268 46.087, 80 48.613, 80 62.450 L 80 75 90.426 75 L 100.852 75 101.176 60.383 L 101.500 45.766 105.225 42.549 C 110.844 37.695, 118.621 35.730, 130.557 36.150 C 139.203 36.454, 141.283 36.891, 146.500 39.500 C 155.028 43.764, 155.996 46.083, 155.998 62.250 L 156 75 167 75 L 178 75 177.994 62.250 C 177.991 55.237, 177.517 47.800, 176.940 45.723 C 175.436 40.307, 171.015 35.780, 163.260 31.714 C 152.412 26.027, 145.600 24.602, 129 24.548 C 113.037 24.495, 107.119 25.537, 97.364 30.114 L 91.228 32.994 85.864 30.544 C 82.914 29.197, 77.800 27.354, 74.500 26.449 C 67.331 24.482, 44.779 23.651, 37.500 25.085 M 232.500 24.559 C 231.400 24.812, 228.025 25.518, 225 26.126 C 212.962 28.548, 200.335 36.581, 197.347 43.718 C 192.086 56.285, 204.443 68.755, 226.825 73.463 C 236.443 75.486, 254.128 75.446, 263.303 73.379 C 277.908 70.088, 290.510 62.043, 293.033 54.399 C 296.752 43.130, 285.789 31.580, 266.500 26.446 C 260.717 24.907, 236.758 23.577, 232.500 24.559 M 316.005 38.717 C 316.010 52.266, 316.198 53.810, 318.256 57.210 C 321.034 61.798, 325.679 65.390, 333.546 69.034 C 345.167 74.417, 351.067 75, 393.958 75 L 433 75 433 69.598 L 433 64.195 394.250 63.785 C 357.256 63.394, 355.248 63.276, 349.934 61.185 C 346.873 59.980, 343.048 57.617, 341.434 55.933 L 338.500 52.872 338.273 38.686 L 338.045 24.500 327.023 24.217 L 316 23.934 316.005 38.717 M 453 49.500 L 453 75 463 75 L 473 75 473 49.500 L 473 24 463 24 L 453 24 453 49.500 M 529.238 25.044 C 517.576 27.134, 508.186 31.264, 501.253 37.351 C 495.536 42.370, 495 44.352, 495 60.450 L 495 75 506 75 L 517 75 517 60.882 L 517 46.765 520.795 42.970 C 526.214 37.551, 533.335 35.664, 546.380 36.192 C 557.617 36.647, 564.057 38.801, 568.493 43.587 C 570.927 46.213, 571 46.710, 571 60.646 L 571 75 582 75 L 593 75 593 60.450 C 593 44.078, 592.553 42.539, 586.110 36.718 C 577.204 28.672, 565.489 24.952, 547.500 24.458 C 540.350 24.261, 532.132 24.525, 529.238 25.044 M 647.951 36.300 C 642.455 37.857, 636.337 41.502, 634.987 44.024 C 633.045 47.653, 633.834 52.466, 636.843 55.349 C 648.447 66.467, 680.789 64.394, 686.594 52.161 C 688.211 48.754, 688.201 48.413, 686.396 45.041 C 685.053 42.532, 682.798 40.649, 678.661 38.582 C 673.575 36.041, 671.510 35.622, 662.661 35.338 C 656.395 35.137, 650.756 35.506, 647.951 36.300 M 230.248 37.880 C 222.308 40.623, 218.083 44.651, 218.032 49.527 C 217.988 53.717, 220.300 56.612, 225.996 59.498 C 243.444 68.339, 272 61.758, 272 48.895 C 272 45.591, 265.163 39.679, 259.063 37.709 C 251.823 35.371, 237.261 35.457, 230.248 37.880 M 813.893 43.366 C 810.464 45.075, 810.648 49.152, 814.210 50.405 C 817.656 51.617, 822 49.799, 822 47.144 C 822 43.657, 817.508 41.564, 813.893 43.366 M 793.800 45.200 C 794.587 45.987, 795.005 50.207, 795.015 57.450 C 795.024 64.308, 795.506 69.442, 796.286 70.983 C 799.224 76.790, 808.261 75.689, 808.718 69.468 C 808.838 67.836, 808.688 67.063, 808.385 67.750 C 806.778 71.391, 806 67.719, 806 56.500 L 806 44 799.300 44 C 794.089 44, 792.867 44.267, 793.800 45.200 M 903.345 45.829 C 904.709 47.336, 905 49.976, 905 60.829 L 905 74 910 74 L 915 74 915 68.468 C 915 60.506, 917.974 54.064, 921.673 54.015 C 922.318 54.007, 921.477 55.369, 919.803 57.043 C 916.976 59.870, 916.793 60.487, 917.226 65.709 C 917.741 71.925, 920.201 75, 924.656 75 C 928.335 75, 932 70.780, 932 66.545 C 932 64.595, 931.844 63, 931.654 63 C 931.463 63, 929.897 63.704, 928.173 64.564 C 925.518 65.888, 924.626 65.926, 922.343 64.814 C 920.861 64.091, 919.436 62.825, 919.178 62 C 918.808 60.820, 919.129 60.873, 920.683 62.250 C 923.293 64.563, 926.534 64.466, 929 62 C 931.392 59.608, 931.500 58.159, 929.499 55.302 C 927.206 52.029, 922.618 51.438, 918.476 53.882 L 915 55.933 915 49.966 L 915 44 908.345 44 C 901.961 44, 901.757 44.074, 903.345 45.829 M 1059.345 45.829 C 1060.709 47.336, 1061 49.976, 1061 60.829 L 1061 74 1065.866 74 L 1070.731 74 1071.239 66.909 C 1071.766 59.543, 1074.028 54.831, 1077.352 54.178 C 1078.421 53.967, 1077.950 54.896, 1075.996 56.851 C 1069.124 63.723, 1074.440 77.217, 1082.954 74.514 C 1085.520 73.700, 1087.558 70.580, 1088.353 66.250 C 1089.030 62.562, 1088.563 62.374, 1084.173 64.564 C 1081.518 65.888, 1080.626 65.926, 1078.343 64.814 C 1076.861 64.091, 1075.436 62.825, 1075.178 62 C 1074.808 60.820, 1075.129 60.873, 1076.683 62.250 C 1079.245 64.520, 1083.252 64.484, 1085.345 62.171 C 1087.396 59.905, 1087.437 58.069, 1085.499 55.302 C 1083.206 52.029, 1078.618 51.438, 1074.476 53.882 L 1071 55.933 1071 49.966 L 1071 44 1064.345 44 C 1057.961 44, 1057.757 44.074, 1059.345 45.829 M 1209.443 46.223 C 1210.299 47.445, 1211 49.475, 1211 50.734 C 1211 52.828, 1210.673 52.971, 1207.172 52.412 C 1204.047 51.912, 1202.853 52.231, 1200.665 54.150 C 1195.283 58.869, 1196.466 71.433, 1202.553 74.206 C 1204.761 75.212, 1205.712 75.128, 1208.186 73.708 C 1210.853 72.177, 1211.384 72.156, 1213.304 73.500 C 1217.752 76.616, 1224.064 74.056, 1223.921 69.193 C 1223.878 67.712, 1223.615 67.063, 1223.338 67.750 C 1221.812 71.531, 1221 67.623, 1221 56.500 L 1221 44 1214.443 44 L 1207.887 44 1209.443 46.223 M 1301.196 47.464 C 1299.738 49.002, 1297.170 50.167, 1294.196 50.640 C 1291.613 51.051, 1290.287 51.558, 1291.250 51.767 C 1292.773 52.097, 1293 53.428, 1293 62.024 C 1293 70.375, 1292.730 72.058, 1291.250 72.920 C 1289.973 73.663, 1292.069 73.939, 1299 73.938 C 1307.111 73.937, 1308.244 73.742, 1306.750 72.608 C 1305.240 71.461, 1305 69.481, 1305 58.140 C 1305 50.913, 1304.662 45.008, 1304.250 45.017 C 1303.838 45.027, 1302.463 46.128, 1301.196 47.464 M 1314.329 46.404 C 1310.632 48.075, 1309 50.670, 1309 54.878 C 1309 58.642, 1312.107 61, 1317.068 61 C 1321.273 61, 1324 63.429, 1324 67.174 C 1324 70.096, 1321.192 73.013, 1318.421 72.970 C 1316.572 72.940, 1316.575 72.898, 1318.500 71.845 C 1320.652 70.668, 1323 68.078, 1323 66.880 C 1323 63.610, 1313.865 61.535, 1311.200 64.200 C 1309.317 66.083, 1309.793 70.503, 1312.105 72.595 C 1313.680 74.021, 1315.713 74.500, 1320.182 74.500 C 1325.777 74.500, 1326.365 74.269, 1329.501 70.847 C 1333.876 66.074, 1334.962 59.807, 1332.521 53.417 C 1331.576 50.942, 1329.805 48.263, 1328.586 47.465 C 1325.240 45.272, 1318.021 44.735, 1314.329 46.404 M 1341.329 46.458 C 1337.641 48.062, 1336 50.655, 1336 54.878 C 1336 58.642, 1339.107 61, 1344.068 61 C 1348.273 61, 1351 63.429, 1351 67.174 C 1351 70.100, 1348.187 73.018, 1345.421 72.960 C 1343.875 72.928, 1344.037 72.628, 1346.250 71.428 C 1348.262 70.337, 1349 69.168, 1349 67.075 C 1349 63.911, 1347.574 63, 1342.618 63 C 1338.708 63, 1337 64.534, 1337 68.045 C 1337 72.397, 1340.317 74.500, 1347.182 74.500 C 1352.749 74.500, 1353.375 74.259, 1356.419 70.937 C 1364.076 62.581, 1360.788 47.608, 1350.861 45.622 C 1346.491 44.748, 1344.947 44.884, 1341.329 46.458 M 1369.021 46.063 C 1364.679 47.888, 1363 50.101, 1363 54 C 1363 58.804, 1365.439 61, 1370.772 61 C 1375.246 61, 1378 63.502, 1378 67.568 C 1378 70.152, 1375.039 73.015, 1372.421 72.960 C 1370.875 72.928, 1371.037 72.628, 1373.250 71.428 C 1376.188 69.834, 1376.937 66.337, 1374.800 64.200 C 1374.140 63.540, 1371.900 63, 1369.823 63 C 1366.898 63, 1365.677 63.564, 1364.408 65.500 C 1362.889 67.819, 1362.891 68.184, 1364.437 70.545 C 1369.038 77.566, 1381.349 75.968, 1385.627 67.794 C 1388.992 61.366, 1387.303 50.739, 1382.406 47.531 C 1379.322 45.509, 1372.196 44.728, 1369.021 46.063 M 733 46.941 C 733 47.459, 733.450 48.160, 734 48.500 C 734.580 48.858, 735 54.344, 735 61.559 L 735 74 740.500 74 L 746 74 746 60 L 746 46 739.500 46 C 735.925 46, 733 46.423, 733 46.941 M 753.610 49.416 C 753.256 50.829, 751.862 52.249, 750.252 52.837 C 748.519 53.470, 748.148 53.871, 749.250 53.921 C 750.772 53.990, 751 55.098, 751 62.427 C 751 70.341, 751.161 70.981, 753.635 72.927 C 757.130 75.677, 760.546 75.545, 763.545 72.545 C 766.030 70.060, 766.833 67, 765 67 C 764.450 67, 764 67.450, 764 68 C 764 68.550, 763.550 69, 763 69 C 762.423 69, 762 65.855, 762 61.566 C 762 54.225, 762.034 54.128, 764.750 53.716 L 767.500 53.300 764.750 53.150 C 762.394 53.021, 762 52.570, 762 50 C 762 47.181, 761.766 47, 758.108 47 C 754.827 47, 754.122 47.379, 753.610 49.416 M 1320 52.941 C 1320 56.314, 1320.443 59, 1321 59 C 1321.550 59, 1322 56.552, 1322 53.559 C 1322 50.566, 1321.550 47.840, 1321 47.500 C 1320.375 47.114, 1320 49.156, 1320 52.941 M 1347 53 C 1347 56.824, 1347.375 58.886, 1348 58.500 C 1348.550 58.160, 1349 55.685, 1349 53 C 1349 50.315, 1348.550 47.840, 1348 47.500 C 1347.375 47.114, 1347 49.176, 1347 53 M 1374.320 53 C 1374.320 56.575, 1374.502 58.038, 1374.723 56.250 C 1374.945 54.462, 1374.945 51.538, 1374.723 49.750 C 1374.502 47.962, 1374.320 49.425, 1374.320 53 M 774.500 52.719 C 767.655 54.387, 767.040 63, 773.766 63 C 779.612 63, 782.022 58.529, 777.777 55.557 C 776.157 54.422, 775.980 54, 777.123 54 C 777.985 54, 779.506 54.902, 780.504 56.004 C 783.517 59.334, 781.244 62.582, 774.536 64.533 C 771.488 65.419, 768.606 66.899, 768.132 67.822 C 765.495 72.957, 773.596 77.486, 778.110 73.400 C 779.730 71.934, 780.068 71.934, 782.161 73.400 C 786.744 76.610, 793.066 74.138, 792.921 69.193 C 792.878 67.712, 792.615 67.063, 792.338 67.750 C 791.243 70.463, 790 68.770, 790 64.565 C 790 58.114, 788.528 55.119, 784.538 53.452 C 781.070 52.003, 778.278 51.799, 774.500 52.719 M 833.378 53.383 C 829.044 55.344, 827 58.682, 827 63.799 C 827 67.253, 827.589 68.743, 829.850 71.003 C 835.465 76.619, 845.511 75.714, 849.285 69.251 C 851.623 65.248, 850.764 63.454, 847.524 65.576 C 844.785 67.371, 837.867 67.146, 837.241 65.242 C 836.925 64.280, 837.451 64.221, 839.479 64.992 C 843.440 66.498, 844.845 66.246, 847.545 63.545 C 850.585 60.505, 850.628 58.827, 847.750 55.548 C 844.941 52.348, 837.983 51.299, 833.378 53.383 M 865.579 53.535 C 863.577 54.580, 862.335 54.735, 861.629 54.029 C 861.063 53.463, 858.350 53, 855.600 53 C 851.711 53, 850.867 53.267, 851.800 54.200 C 852.561 54.961, 853 58.800, 853 64.700 L 853 74 858.500 74 L 864 74 864 65.441 C 864 59.990, 864.363 57.106, 865 57.500 C 865.550 57.840, 866 61.691, 866 66.059 L 866 74 871 74 L 876 74 876 64.557 C 876 55.932, 875.807 54.978, 873.777 53.557 C 870.999 51.610, 869.279 51.606, 865.579 53.535 M 885.255 53.117 C 881.429 54.222, 878.567 58.061, 879.464 60.886 C 879.831 62.043, 881.971 63.587, 884.594 64.589 C 887.069 65.534, 889.485 67.038, 889.962 67.930 C 891.061 69.983, 889.453 73, 887.259 73 C 885.842 73, 885.871 72.815, 887.471 71.645 C 889.898 69.870, 888.862 67.255, 885.388 66.383 C 882.105 65.558, 879.611 66.960, 879.178 69.873 C 878.528 74.247, 890.256 76.591, 897.546 73.545 C 901.468 71.907, 902.499 70.123, 901.598 66.535 C 901.136 64.695, 899.910 63.772, 896.740 62.876 C 890.807 61.200, 888.462 58.873, 889.935 56.122 C 890.559 54.955, 891.816 54, 892.726 54 C 894.136 54, 894.093 54.215, 892.441 55.441 C 889.892 57.334, 891.565 60.365, 895.411 60.822 C 901.482 61.544, 903.137 55.791, 897.532 53.449 C 893.650 51.827, 890.060 51.730, 885.255 53.117 M 940.500 52.719 C 935.787 53.867, 933.370 58.970, 936.200 61.800 C 936.860 62.460, 938.795 63, 940.500 63 C 942.205 63, 944.140 62.460, 944.800 61.800 C 946.751 59.849, 946.201 56.403, 943.750 55.220 C 942.060 54.406, 941.918 54.119, 943.179 54.068 C 945.349 53.980, 948 56.646, 948 58.916 C 948 61.412, 944.970 63.862, 940.934 64.629 C 935.732 65.618, 934 66.829, 934 69.478 C 934 73.969, 941.120 76.737, 944.354 73.504 C 945.682 72.175, 946.186 72.200, 948.844 73.725 C 951.169 75.059, 952.469 75.221, 954.666 74.448 C 957.510 73.448, 960.812 68.432, 959.454 67.174 C 959.054 66.803, 958.525 67.063, 958.280 67.750 C 957.232 70.683, 956 68.620, 956 63.934 C 956 61.148, 955.514 57.960, 954.920 56.850 C 952.997 53.258, 946.238 51.321, 940.500 52.719 M 977.256 52.975 C 972.767 54.041, 971 55.761, 971 59.066 C 971 62.016, 974.051 65, 977.068 65 C 977.960 65, 979.528 65.926, 980.553 67.059 C 982.693 69.423, 981.633 72.258, 978.393 72.840 C 976.550 73.171, 976.550 73.142, 978.412 71.734 C 982.041 68.992, 978.468 65.164, 973.455 66.422 C 969.931 67.306, 969.288 69.733, 971.889 72.333 C 973.719 74.163, 975.200 74.500, 981.423 74.500 C 990.200 74.500, 993.296 72.616, 992.799 67.576 C 992.539 64.948, 991.843 64.308, 987.500 62.709 C 984.750 61.696, 982.105 60.481, 981.623 60.007 C 980.249 58.659, 981.840 54, 983.674 54 C 985.107 54, 985.075 54.259, 983.418 56.090 C 981.562 58.142, 981.563 58.207, 983.454 59.590 C 986.017 61.464, 989.482 61.375, 991.473 59.384 C 992.881 57.976, 992.909 57.495, 991.686 55.653 C 989.510 52.377, 984.046 51.363, 977.256 52.975 M 1008.138 53.616 C 1006.441 54.805, 1005.537 54.937, 1004.716 54.116 C 1004.102 53.502, 1001.350 53, 998.600 53 C 994.711 53, 993.867 53.267, 994.800 54.200 C 995.561 54.961, 996 58.800, 996 64.700 L 996 74 1001 74 L 1006 74 1006 65.500 C 1006 60.500, 1006.412 57, 1007 57 C 1007.588 57, 1008 60.500, 1008 65.500 L 1008 74 1013 74 L 1018 74 1018 65.500 C 1018 60.500, 1018.412 57, 1019 57 C 1019.588 57, 1020 60.500, 1020 65.500 L 1020 74 1025.036 74 L 1030.072 74 1029.786 64.286 C 1029.508 54.842, 1029.423 54.529, 1026.738 53.036 C 1024.222 51.636, 1023.704 51.655, 1020.907 53.250 C 1018.153 54.820, 1017.618 54.846, 1015.696 53.500 C 1012.949 51.575, 1011.009 51.605, 1008.138 53.616 M 1038 53.752 C 1034.241 55.629, 1032.952 59.033, 1035.046 61.555 C 1036.498 63.305, 1042.137 63.463, 1043.800 61.800 C 1045.744 59.856, 1045.198 56.406, 1042.750 55.166 L 1040.500 54.026 1042.980 54.263 C 1044.666 54.424, 1045.765 55.371, 1046.412 57.220 C 1047.652 60.758, 1045.140 63.706, 1040.113 64.612 C 1034.777 65.574, 1033 66.789, 1033 69.478 C 1033 73.944, 1039.518 76.535, 1043.475 73.642 C 1045.055 72.487, 1045.744 72.520, 1048.085 73.864 C 1050.185 75.069, 1051.508 75.207, 1053.666 74.448 C 1056.510 73.448, 1059.812 68.432, 1058.454 67.174 C 1058.054 66.803, 1057.525 67.063, 1057.280 67.750 C 1056.232 70.683, 1055 68.620, 1055 63.934 C 1055 57.588, 1053.746 55.210, 1049.452 53.415 C 1044.990 51.551, 1042.243 51.632, 1038 53.752 M 1099 52.652 C 1093.120 54.589, 1090 58.350, 1090 63.500 C 1090 73.777, 1104.278 78.848, 1111.250 71.046 C 1112.763 69.353, 1114 67.024, 1114 65.869 C 1114 63.868, 1113.885 63.845, 1111.535 65.385 C 1108.829 67.158, 1103.339 67.500, 1101.029 66.039 C 1098.610 64.509, 1100.402 63.948, 1103.715 65.199 C 1106.291 66.171, 1107.235 66.076, 1109.453 64.623 C 1112.676 62.511, 1113.418 60.801, 1112.572 57.432 C 1111.602 53.565, 1104.171 50.948, 1099 52.652 M 1124.767 53.397 C 1123.188 54.245, 1121.791 54.470, 1121.458 53.932 C 1121.141 53.419, 1119.368 53, 1117.518 53 L 1114.153 53 1115.577 55.854 C 1116.494 57.693, 1116.929 61.337, 1116.800 66.104 L 1116.599 73.500 1122.299 73.800 L 1128 74.100 1128 69.595 C 1128 66.124, 1127.427 64.518, 1125.500 62.591 C 1124.125 61.216, 1123 59.428, 1123 58.617 C 1123 56.643, 1125.745 54, 1127.794 54 C 1129.084 54, 1128.959 54.340, 1127.223 55.557 C 1123.038 58.488, 1125.025 63, 1130.500 63 C 1132.205 63, 1134.140 62.460, 1134.800 61.800 C 1136.413 60.187, 1136.324 55.514, 1134.655 54.128 C 1132.334 52.203, 1127.640 51.855, 1124.767 53.397 M 1153.255 53.117 C 1151.471 53.633, 1149.301 55.137, 1148.434 56.460 C 1146.259 59.779, 1147.930 62.613, 1153.460 64.983 C 1155.836 66.001, 1158.075 67.312, 1158.436 67.897 C 1159.398 69.452, 1157.199 73, 1155.274 73 C 1153.830 73, 1153.855 72.827, 1155.471 71.645 C 1157.898 69.870, 1156.862 67.255, 1153.388 66.383 C 1149.938 65.517, 1147.500 67.060, 1147.500 70.109 C 1147.500 71.948, 1148.309 72.776, 1151 73.694 C 1156.080 75.426, 1161.992 75.251, 1166 73.248 C 1169 71.750, 1169.500 71, 1169.500 68 C 1169.500 64.694, 1169.226 64.409, 1164.571 62.865 C 1158.778 60.944, 1156.607 58.603, 1158.074 55.862 C 1158.622 54.838, 1159.816 54, 1160.726 54 C 1162.136 54, 1162.093 54.215, 1160.441 55.441 C 1158.888 56.595, 1158.721 57.244, 1159.607 58.691 C 1161.911 62.455, 1169 61.503, 1169 57.430 C 1169 53.040, 1161.056 50.865, 1153.255 53.117 M 1178.378 53.383 C 1174.096 55.321, 1172 58.674, 1172 63.588 C 1172 68.864, 1174.829 72.569, 1180.054 74.134 C 1187.060 76.233, 1193.989 72.928, 1195.530 66.750 C 1196.295 63.687, 1195.454 63.342, 1192.559 65.532 C 1189.671 67.716, 1182 67.270, 1182 64.918 C 1182 64.440, 1183.154 64.488, 1184.565 65.025 C 1188.436 66.496, 1189.858 66.233, 1192.545 63.545 C 1195.585 60.505, 1195.628 58.827, 1192.750 55.548 C 1189.941 52.348, 1182.983 51.299, 1178.378 53.383 M 1232.273 53.069 C 1226.576 54.792, 1225.409 61.312, 1230.567 62.606 C 1236.972 64.214, 1241.399 59.366, 1236.877 55.694 C 1234.875 54.068, 1234.798 53.822, 1236.393 54.132 C 1239.053 54.649, 1240.410 57.232, 1239.638 60.308 C 1239.127 62.341, 1238.034 63.178, 1234.740 64.056 C 1227.185 66.069, 1224.586 68.528, 1226.609 71.750 C 1228.505 74.771, 1232.756 75.677, 1236.081 73.768 C 1238.811 72.201, 1239.189 72.201, 1241.919 73.768 C 1245.734 75.958, 1250.072 74.581, 1251.418 70.752 C 1252.439 67.848, 1251.431 65.685, 1250.077 67.875 C 1249.577 68.685, 1249.083 67.014, 1248.794 63.531 C 1248.441 59.276, 1247.725 57.276, 1245.912 55.477 C 1243.114 52.701, 1237.036 51.628, 1232.273 53.069 M 1266.640 53.630 C 1264.576 54.748, 1263.476 54.876, 1262.690 54.090 C 1262.090 53.490, 1259.350 53, 1256.600 53 C 1252.711 53, 1251.867 53.267, 1252.800 54.200 C 1253.561 54.961, 1254 58.800, 1254 64.700 L 1254 74 1259.500 74 L 1265 74 1265 65.441 C 1265 59.990, 1265.363 57.106, 1266 57.500 C 1266.550 57.840, 1267 61.691, 1267 66.059 L 1267 74 1272 74 L 1277 74 1277 64.557 C 1277 55.932, 1276.807 54.978, 1274.777 53.557 C 1272.026 51.630, 1270.303 51.645, 1266.640 53.630 M 809.769 54.250 C 810.327 54.938, 810.956 59.036, 811.167 63.359 C 811.497 70.132, 811.872 71.478, 813.886 73.109 C 818.340 76.715, 825.072 74.327, 824.921 69.193 C 824.878 67.712, 824.615 67.063, 824.338 67.750 C 822.992 71.085, 822 68.221, 822 61 L 822 53 815.378 53 C 810.205 53, 808.977 53.274, 809.769 54.250 M 838 58 C 838 60.491, 838.395 61.874, 839 61.500 C 839.550 61.160, 840 59.585, 840 58 C 840 56.415, 839.550 54.840, 839 54.500 C 838.395 54.126, 838 55.509, 838 58 M 1101 58 C 1101 60.200, 1101.450 62, 1102 62 C 1102.550 62, 1103 60.200, 1103 58 C 1103 55.800, 1102.550 54, 1102 54 C 1101.450 54, 1101 55.800, 1101 58 M 1183 58 C 1183 60.200, 1183.450 62, 1184 62 C 1184.550 62, 1185 60.200, 1185 58 C 1185 55.800, 1184.550 54, 1184 54 C 1183.450 54, 1183 55.800, 1183 58 M 1209 63.059 C 1209 67.510, 1209.369 69.890, 1210 69.500 C 1210.550 69.160, 1211 65.984, 1211 62.441 C 1211 58.814, 1210.563 56, 1210 56 C 1209.428 56, 1209 59.020, 1209 63.059 M 778.195 67.500 C 778.215 69.150, 778.439 69.704, 778.693 68.731 C 778.947 67.758, 778.930 66.408, 778.656 65.731 C 778.382 65.054, 778.175 65.850, 778.195 67.500 M 944 67.441 C 944 68.848, 944.450 70, 945 70 C 945.550 70, 946 69.127, 946 68.059 C 946 66.991, 945.550 65.840, 945 65.500 C 944.433 65.149, 944 65.990, 944 67.441 M 1043 67.441 C 1043 68.848, 1043.450 70, 1044 70 C 1044.550 70, 1045 69.127, 1045 68.059 C 1045 66.991, 1044.550 65.840, 1044 65.500 C 1043.433 65.149, 1043 65.990, 1043 67.441 M 1236.923 65.250 C 1236.291 67.317, 1236.360 69.104, 1237.089 69.555 C 1237.590 69.865, 1238 68.966, 1238 67.559 C 1238 65.524, 1237.300 64.021, 1236.923 65.250" stroke="none" fill="black" fill-rule="evenodd"/>
</svg>